<svg id="_0" data-name="0" xmlns="http://www.w3.org/2000/svg" viewBox="0 0 397.56 567.64"><defs><style>.cls-1{fill:none;stroke:#000;stroke-linecap:round;stroke-linejoin:round;stroke-width:0.71px;}</style></defs><g id="CIRCLE"><path class="cls-1" d="M237.51,256.61a14.18,14.18,0,1,1,14.18,14.17,14.18,14.18,0,0,1-14.18-14.17Z" transform="translate(-99.22 -137.07)"/></g><g id="CIRCLE-2" data-name="CIRCLE"><path class="cls-1" d="M390.32,551.69a14.18,14.18,0,1,1,14.17,14.17,14.18,14.18,0,0,1-14.17-14.17Z" transform="translate(-99.22 -137.07)"/></g><g id="CIRCLE-3" data-name="CIRCLE"><path class="cls-1" d="M223,363.51a14.18,14.18,0,1,1,14.17,14.17A14.18,14.18,0,0,1,223,363.51Z" transform="translate(-99.22 -137.07)"/></g><g id="CIRCLE-4" data-name="CIRCLE"><path class="cls-1" d="M306.66,220.1a14.18,14.18,0,1,1,14.17,14.17,14.18,14.18,0,0,1-14.17-14.17Z" transform="translate(-99.22 -137.07)"/></g><g id="CIRCLE-5" data-name="CIRCLE"><path class="cls-1" d="M150.49,588.21a14.18,14.18,0,1,1,14.18,14.18,14.17,14.17,0,0,1-14.18-14.18Z" transform="translate(-99.22 -137.07)"/></g><g id="CIRCLE-6" data-name="CIRCLE"><path class="cls-1" d="M384.72,417.74a14.17,14.17,0,1,1,14.17,14.18,14.17,14.17,0,0,1-14.17-14.18Z" transform="translate(-99.22 -137.07)"/></g><g id="LWPOLYLINE"><polygon class="cls-1" points="198.78 0.35 283.82 142.09 227.13 142.09 363.19 312.17 255.47 312.17 397.2 482.24 255.47 482.24 255.47 567.28 203.88 567.28 203.88 282.97 193.68 282.97 193.68 567.28 142.09 567.28 142.09 482.24 0.35 482.24 142.09 312.17 34.37 312.17 170.43 142.09 113.74 142.09 198.78 0.35"/></g></svg>