<svg id="_0" data-name="0" xmlns="http://www.w3.org/2000/svg" viewBox="0 0 397.56 559.13"><defs><style>.cls-1{fill:none;stroke:#000;stroke-linecap:round;stroke-linejoin:round;stroke-width:0.71px;}</style></defs><g id="CIRCLE"><path class="cls-1" d="M188.67,525.11a14.17,14.17,0,1,1,14.17,14.17,14.17,14.17,0,0,1-14.17-14.17Z" transform="translate(-99.22 -141.32)"/></g><g id="CIRCLE-2" data-name="CIRCLE"><path class="cls-1" d="M240.4,256a14.18,14.18,0,1,1,14.18,14.17A14.18,14.18,0,0,1,240.4,256Z" transform="translate(-99.22 -141.32)"/></g><g id="CIRCLE-3" data-name="CIRCLE"><path class="cls-1" d="M391.41,586.63a14.18,14.18,0,1,1,14.17,14.18,14.17,14.17,0,0,1-14.17-14.18Z" transform="translate(-99.22 -141.32)"/></g><g id="CIRCLE-4" data-name="CIRCLE"><path class="cls-1" d="M362.11,381.46a14.18,14.18,0,1,1,14.18,14.18,14.18,14.18,0,0,1-14.18-14.18Z" transform="translate(-99.22 -141.32)"/></g><g id="CIRCLE-5" data-name="CIRCLE"><path class="cls-1" d="M168.52,422.42a14.18,14.18,0,1,1,14.18,14.17,14.18,14.18,0,0,1-14.18-14.17Z" transform="translate(-99.22 -141.32)"/></g><g id="CIRCLE-6" data-name="CIRCLE"><path class="cls-1" d="M326.17,240.7a14.17,14.17,0,1,1,14.17,14.17,14.16,14.16,0,0,1-14.17-14.17Z" transform="translate(-99.22 -141.32)"/></g><g id="LWPOLYLINE"><polygon class="cls-1" points="193.68 0.35 193.68 276.17 203.88 276.17 203.88 0.35 283.82 133.58 227.13 133.58 363.19 303.66 255.47 303.66 397.2 473.74 255.47 473.74 255.47 558.78 142.09 558.78 142.09 473.74 0.35 473.74 142.09 303.66 34.37 303.66 170.43 133.58 113.74 133.58 193.68 0.35"/></g></svg>